<svg version="1.1" xmlns="http://www.w3.org/2000/svg" viewBox="0 0 1184.1408970702626 917" width="1184.1408970702626" height="917">
  <!-- svg-source:excalidraw -->
  
  <defs>
    <style>
      @font-face {
        font-family: "Virgil";
        src: url("https://excalidraw.com/Virgil.woff2");
      }
      @font-face {
        font-family: "Cascadia";
        src: url("https://excalidraw.com/Cascadia.woff2");
      }
    </style>
  </defs>
  <rect x="0" y="0" width="1184.1408970702626" height="917" fill="#ffffff"/><g stroke-linecap="round" transform="translate(130.14089707026255 207) rotate(0 226.5 36)"><path d="M-0.34 -0.57 C97.01 1.61, 193.68 0.4, 453.04 -0.74 M-0.28 0.33 C165.5 -0.77, 331.41 -0.66, 452.95 0.38 M451.82 1.03 C452.42 29.04, 453.7 57.66, 451.45 70.73 M453.05 -0.08 C454.34 19.36, 453.28 38.59, 453.38 71.59 M452.4 72.72 C328.41 71.36, 202.55 71.32, -0.84 71.69 M453.44 72.25 C319.35 73.25, 186.2 73.16, 0.21 71.62 M0.16 73.34 C-0.94 47.17, -0.72 23.89, 0.02 -0.95 M0.97 71.87 C-0.95 56.35, -0.33 40.6, 0.84 0.27" stroke="#000000" stroke-width="1" fill="none"/></g><g stroke-linecap="round" transform="translate(630.1408970702626 207) rotate(0 40 40)"><path d="M34.67 1.26 C41.97 -0.42, 52.99 0.89, 59.85 4.31 C66.7 7.72, 72.72 14.61, 75.82 21.76 C78.93 28.91, 79.67 39.51, 78.47 47.21 C77.28 54.91, 74.18 62.43, 68.63 67.97 C63.08 73.5, 53.1 79.1, 45.18 80.41 C37.26 81.72, 27.79 79.59, 21.1 75.82 C14.41 72.05, 8.63 64.67, 5.04 57.78 C1.45 50.89, -1.49 42.09, -0.45 34.47 C0.59 26.84, 5.85 17.77, 11.28 12.03 C16.71 6.29, 26.33 1.92, 32.12 0.05 C37.92 -1.83, 42.19 -0.09, 46.05 0.77 C49.92 1.63, 55.57 4.5, 55.31 5.2 M22.25 4.84 C29.02 1.47, 41.46 -0.74, 49.3 0.67 C57.14 2.07, 64.2 7.36, 69.29 13.25 C74.37 19.14, 78.88 28.38, 79.8 36.03 C80.72 43.67, 78.71 52.39, 74.82 59.13 C70.93 65.88, 63.25 73.07, 56.47 76.52 C49.69 79.96, 41.68 81.28, 34.13 79.81 C26.59 78.34, 16.98 73.35, 11.21 67.7 C5.44 62.05, 0.47 53.77, -0.51 45.91 C-1.48 38.05, 1.61 27.61, 5.34 20.55 C9.08 13.5, 18.84 6.26, 21.91 3.56 C24.98 0.86, 23.4 4.23, 23.78 4.36 C24.16 4.49, 23.8 3.97, 24.17 4.34" stroke="#000000" stroke-width="1" fill="none"/></g><g stroke-linecap="round"><g transform="translate(670.1408970702626 227) rotate(0 0.12799268972128175 20.25512553621084)"><path d="M0.21 0.9 C0.26 7.6, -0.99 32.72, -0.86 39.11 M-1.15 0.33 C-0.61 7.25, 1.08 33.54, 1.4 40.18" stroke="#000000" stroke-width="1" fill="none"/></g></g><g stroke-linecap="round"><g transform="translate(650.1408970702626 247) rotate(0 20.18698996471238 0.2519340668991106)"><path d="M1.02 -0.76 C7.87 -0.48, 33.88 0.82, 40.28 0.76 M0.09 1.46 C6.89 1.47, 33.1 -0.66, 39.48 -0.96" stroke="#000000" stroke-width="1" fill="none"/></g></g><g stroke-linecap="round" transform="translate(130.14089707026255 327) rotate(0 230 30)"><path d="M0.38 -0.05 C167.23 1.11, 334.06 2, 460.3 -0.65 M-0.4 -0.06 C183.06 -1.64, 367.22 -0.8, 459.96 0 M459.54 0.1 C458.75 20.61, 461.33 40.36, 459.66 59.56 M459.09 0.23 C459.29 14.24, 460.46 28.37, 460.05 60.55 M459.34 59.84 C340.76 60.88, 221.61 61.72, -0.64 60.35 M460.18 60.35 C284.76 58.61, 110.44 58.12, 0.45 60.18 M-0.16 58.81 C-1.94 43.55, 0.86 26.56, 0.28 0.71 M0.77 60.54 C0.73 43.6, -0.61 29.57, 0.53 0.57" stroke="#000000" stroke-width="1" fill="none"/></g><g stroke-linecap="round" transform="translate(630.1408970702626 347) rotate(0 40 20)"><path d="M27.89 1.02 C35.55 -0.63, 47.73 -0.68, 55.6 1.06 C63.46 2.79, 71.26 7.6, 75.07 11.42 C78.87 15.25, 80.18 20.1, 78.41 24.02 C76.64 27.93, 71.12 32.26, 64.45 34.92 C57.78 37.59, 47.06 39.98, 38.4 40.03 C29.74 40.08, 18.7 38.23, 12.5 35.22 C6.3 32.2, 2.37 26.19, 1.18 21.94 C-0.01 17.7, 0.14 13.46, 5.36 9.77 C10.58 6.08, 27.33 1.24, 32.52 -0.17 C37.7 -1.58, 36.55 0.7, 36.47 1.29 M46.66 0.25 C54.65 0.42, 64.58 2.74, 70.19 6.24 C75.8 9.75, 80.28 16.76, 80.32 21.28 C80.36 25.79, 76.01 30.35, 70.43 33.33 C64.84 36.31, 55.21 38.66, 46.79 39.15 C38.38 39.64, 27.18 38.25, 19.93 36.28 C12.69 34.31, 5.98 31.43, 3.33 27.32 C0.69 23.21, 1.29 15.55, 4.07 11.59 C6.85 7.64, 12.62 5.31, 20.01 3.58 C27.4 1.85, 44.05 1.7, 48.43 1.22 C52.8 0.74, 46.42 0.32, 46.27 0.72" stroke="#000000" stroke-width="1" fill="none"/></g><g stroke-linecap="round" transform="translate(750.1408970702626 347) rotate(0 30 20)"><path d="M-1.61 -1.5 C14.68 1.03, 26.57 0.48, 61.58 -1.13 M0.64 -0.64 C23.71 -0.49, 46.79 0.33, 60.62 0.16 M60.71 -1.15 C61.68 13.64, 62.02 23.47, 59.21 41.43 M59.98 0.42 C61.1 13.16, 59.97 27.81, 60.43 40.82 M58.73 40.75 C41.59 39.83, 23.24 41.76, 0.5 38.26 M59.62 40.69 C42.33 41.17, 23.91 39.51, -0.43 39.41 M1.48 38.16 C0.06 24.6, -1.3 10.35, -0.08 -0.77 M0.98 39.31 C0.29 28.26, 1.04 18.19, 0.89 -0.78" stroke="#000000" stroke-width="1" fill="none"/></g><g stroke-linecap="round"><g transform="translate(670.1408970702626 367) rotate(0 0.17393057106994547 0.06258510628714475)"><path d="M1.05 0.27 C0.76 0.09, -0.64 -0.62, -0.94 -0.51 M0.15 -0.63 C0.15 -0.7, 1.01 0.81, 1.28 0.76" stroke="#000000" stroke-width="1" fill="none"/></g></g><g stroke-linecap="round"><g transform="translate(650.1408970702626 367) rotate(0 19.140508518656702 -0.9423403417132761)"><path d="M-0.05 -0.46 C6.74 -0.68, 33.19 -1.37, 39.82 -1.1 M-1.53 -1.75 C5.17 -1.88, 32.05 -0.33, 38.77 -0.13" stroke="#000000" stroke-width="1" fill="none"/></g></g><g stroke-linecap="round"><g transform="translate(670.1408970702626 347) rotate(0 0.5402786620726374 21.07212230870499)"><path d="M-0.31 1.17 C-0.41 8.01, -0.81 33.31, -0.83 39.91 M1.73 0.74 C2.02 7.87, 1.97 35.04, 1.45 41.4" stroke="#000000" stroke-width="1" fill="none"/></g></g><g stroke-linecap="round" transform="translate(130.14089707026255 427) rotate(0 230 30)"><path d="M0.55 0.03 C169.87 -1.54, 338.12 -1.08, 459.23 0.31 M0.14 0.31 C97.05 -0.52, 195.37 -0.68, 459.72 0.45 M459.37 -1.87 C458.23 14.7, 459.62 32.51, 461.02 58.83 M459.82 -0.34 C459 23.31, 459.78 45.59, 460.76 60.11 M459.41 59.51 C317.98 61.39, 175.27 61.13, 0.51 60.37 M459.81 60.31 C296.11 59.86, 131.42 59.95, 0.42 59.88 M-0.61 59.46 C-1.22 42.18, -0.86 23.9, -1.29 -1.25 M-0.65 61 C0.58 41.17, 0.15 21.1, 0.63 0.66" stroke="#000000" stroke-width="1" fill="none"/></g><g stroke-linecap="round" transform="translate(630.1408970702626 447) rotate(0 40 20)"><path d="M30.37 0.64 C38.08 -0.63, 49.74 0.5, 57.48 2.28 C65.22 4.06, 73.34 7.57, 76.84 11.32 C80.33 15.07, 80.64 20.51, 78.43 24.79 C76.22 29.07, 70.47 34.57, 63.58 37.01 C56.69 39.46, 45.6 39.79, 37.09 39.46 C28.57 39.13, 18.69 37.99, 12.49 35.03 C6.3 32.07, 0.78 26.02, -0.1 21.69 C-0.97 17.36, 1.78 12.64, 7.24 9.03 C12.7 5.43, 27.89 1.47, 32.64 0.04 C37.38 -1.38, 35.62 0.14, 35.72 0.47 M27.3 1.63 C34.85 0.3, 45.55 1.36, 53.67 2.89 C61.79 4.41, 71.73 7.45, 76.02 10.77 C80.31 14.08, 81.12 18.45, 79.42 22.76 C77.73 27.07, 72.46 33.62, 65.86 36.63 C59.26 39.64, 48.73 40.93, 39.84 40.84 C30.96 40.76, 19.38 38.95, 12.57 36.13 C5.77 33.3, 0.34 28.39, -0.99 23.9 C-2.32 19.4, -0.27 13.08, 4.57 9.15 C9.41 5.23, 24.16 1.63, 28.05 0.32 C31.95 -0.98, 27.98 1.12, 27.95 1.33" stroke="#000000" stroke-width="1" fill="none"/></g><g stroke-linecap="round"><g transform="translate(670.1408970702626 447) rotate(0 -0.45793394504113394 20.587021274156854)"><path d="M0.47 0.68 C0.43 7.2, -0.13 33.08, -0.29 39.76 M-0.74 0 C-0.96 6.64, -1.26 34.7, -1.39 41.18" stroke="#000000" stroke-width="1" fill="none"/></g></g><g stroke-linecap="round"><g transform="translate(650.1408970702626 467) rotate(0 20.13085216246543 -0.07787474846318787)"><path d="M-0.48 0.8 C6.36 0.96, 34.09 0.71, 40.74 0.73 M1.47 0.17 C8.24 0.01, 34.03 -0.83, 40.19 -1.01" stroke="#000000" stroke-width="1" fill="none"/></g></g><g stroke-linecap="round" transform="translate(750.1408970702626 447) rotate(0 30 20)"><path d="M1.8 -0.49 C21.6 -0.51, 44.37 -1.1, 59.46 -1.22 M-0.65 -0.62 C18.09 0.16, 36.23 -0.5, 61 0.58 M61.26 1.31 C61.22 13.98, 58.81 27.22, 58.09 41.24 M59.52 0.27 C59.84 8.03, 59 17.28, 59.95 39.22 M60.59 40.06 C42.84 40.44, 25.49 40.48, -1.61 39.52 M60.85 39.56 C46.7 39.66, 32.25 39.68, 0.48 40.01 M-0.93 40.48 C0.55 29.37, 1.02 18.49, -1.42 -0.44 M0.05 40.11 C0.31 25.39, -0.08 8.41, -0.04 0.84" stroke="#000000" stroke-width="1" fill="none"/></g><g stroke-linecap="round" transform="translate(170.14089707026255 87) rotate(0 170 30)"><path d="M-0.34 -0.86 C80.37 1.22, 162.4 1.52, 339.14 1.33 M-0.54 0.42 C122.26 0.05, 244.02 -0.75, 340.51 -0.64 M341.02 -0.95 C340.01 21.62, 338.52 41.68, 340.53 59.9 M339.46 0.29 C339.96 13.37, 340.31 26.64, 340.4 59.2 M339.75 61.13 C245.53 59.72, 151.92 58.98, -0.27 60.64 M340.48 59.69 C237.86 59.27, 135.75 59.43, 0.62 59.53 M0.46 60.09 C-0.3 43.18, 1.3 25.71, -1.09 -0.08 M-0.24 60.08 C0.41 37.1, -0.98 14.13, 0.81 -0.44" stroke="#000000" stroke-width="1" fill="none"/></g><g transform="translate(218.14089707026255 110) rotate(0 83.5 13)"><text x="0" y="18" font-family="Virgil, Segoe UI Emoji" font-size="20px" fill="#000000" text-anchor="start" style="white-space: pre;" direction="ltr">MY TO DO LIST</text></g><g stroke-linecap="round"><g transform="translate(10.140897070262554 107) rotate(0 80.31688593103553 60.01604821750895)"><path d="M0.86 0.05 C27.54 19.87, 134.07 99.61, 160.77 119.64 M-0.14 -0.96 C26.38 18.96, 133.39 100.55, 160.23 120.99" stroke="#000000" stroke-width="1" fill="none"/></g><g transform="translate(10.140897070262554 107) rotate(0 80.31688593103553 60.01604821750895)"><path d="M131.68 113.36 C141.4 116.92, 152.79 117.4, 161.86 122.35 M132.23 111.13 C137.85 114.64, 144.01 116.16, 159.35 121.42" stroke="#000000" stroke-width="1" fill="none"/></g><g transform="translate(10.140897070262554 107) rotate(0 80.31688593103553 60.01604821750895)"><path d="M144.12 97.04 C149.45 106.59, 156.35 112.96, 161.86 122.35 M144.67 94.81 C147.77 101.65, 151.37 106.52, 159.35 121.42" stroke="#000000" stroke-width="1" fill="none"/></g></g><g stroke-linecap="round"><g transform="translate(850.1408970702626 67) rotate(0 -70.54282384334135 90.33379875568673)"><path d="M0.51 0.72 C-22.97 31, -117.03 150.79, -140.42 180.62 M-0.68 0.05 C-24.4 30.07, -118.29 148.69, -141.59 178.82" stroke="#000000" stroke-width="1" fill="none"/></g><g transform="translate(850.1408970702626 67) rotate(0 -70.54282384334135 90.33379875568673)"><path d="M-131.09 149.6 C-134.63 160.23, -139.32 167.9, -141.28 178.88 M-131.94 150.29 C-134.58 158.07, -136.33 164.11, -140.96 179.6" stroke="#000000" stroke-width="1" fill="none"/></g><g transform="translate(850.1408970702626 67) rotate(0 -70.54282384334135 90.33379875568673)"><path d="M-114.93 162.26 C-123.8 168.7, -133.93 172.11, -141.28 178.88 M-115.79 162.95 C-122.22 167.79, -127.8 170.83, -140.96 179.6" stroke="#000000" stroke-width="1" fill="none"/></g></g><g stroke-linecap="round"><g transform="translate(770.1408970702626 367) rotate(0 9.9685000691004 -0.018384823612876744)"><path d="M0.47 -0.26 C3.8 -0.32, 17.33 -0.23, 20.68 -0.09 M-0.74 -1.44 C2.43 -1.34, 16.61 1.4, 20.08 1.4" stroke="#000000" stroke-width="1" fill="none"/></g></g><g stroke-linecap="round"><g transform="translate(770.1408970702626 467) rotate(0 9.386610543355346 0.059156569428722605)"><path d="M-1.16 -0.51 C2.22 -0.51, 16.44 0.22, 19.93 0.27 M0.43 1.83 C3.67 1.42, 15.87 -1.58, 18.95 -1.71" stroke="#000000" stroke-width="1" fill="none"/></g></g><g stroke-linecap="round" transform="translate(850.1408970702626 347) rotate(0 20 20)"><path d="M-0.33 -0.85 C11.08 1.33, 21.96 1.33, 39.84 0.77 M0.06 0.89 C12.02 1.26, 22.1 0.31, 40.84 -0.24 M39.54 1.17 C40.99 8.33, 39.22 20.52, 41.89 41.71 M40.04 -0.35 C38.76 11.27, 38.96 23.18, 40.26 40.41 M40.61 41.4 C27.05 41.7, 16.1 41.68, 0.83 39.59 M40.58 40.85 C29.96 40.24, 19.6 39.31, -0.96 39.59 M-1.73 39.17 C0.58 27.62, -1.08 13.9, -1.01 0.17 M0.53 40.32 C0.9 24.3, -0.03 10.16, 0.69 0.03" stroke="#000000" stroke-width="1" fill="none"/></g><g stroke-linecap="round" transform="translate(850.1408970702626 447) rotate(0 20 20)"><path d="M1.25 -1.59 C12.59 -0.03, 23.44 -0.27, 39.33 -1.84 M0.89 -0.28 C12.18 0.51, 24.25 -0.84, 39.57 0 M38.37 -0.61 C40.84 12.97, 41.95 22.08, 38.02 41.59 M39.46 -0.65 C39.42 12.42, 40.27 24.31, 39.14 39.94 M41.72 39.97 C28.48 40.63, 13.14 38.68, -1.28 38.75 M40.5 39.13 C25.24 38.93, 10.95 40.33, -0.92 40.94 M1.38 38.55 C1.59 30.46, 0.34 24.62, 0.11 -1.44 M-0.34 39.99 C0.75 26.57, -0.1 11.78, -0.65 -0.17" stroke="#000000" stroke-width="1" fill="none"/></g><g stroke-linecap="round" transform="translate(230.14089707026255 567) rotate(0 120 40)"><path d="M-0.84 0.14 C89.94 -1.33, 175.87 -0.54, 240.53 1.53 M0.58 0.02 C63.96 -2.29, 127.76 -1.83, 240.61 -0.62 M239.52 -1.05 C238.66 30.41, 241.49 60.76, 239.56 80.02 M239.35 0.81 C239.08 21.86, 238.98 42.84, 239.27 79.61 M239.92 78.91 C177.46 78.63, 114.47 78.41, 0.98 81.58 M239.57 80.1 C191.01 77.39, 142.45 77.44, 0.58 79.5 M-0.65 81.05 C1.11 48.46, -1.42 17.29, 0.86 -1.71 M0.72 80.94 C-0.18 59.35, -0.13 36.02, 0.69 -0.87" stroke="#000000" stroke-width="1" fill="none"/></g><g transform="translate(259.14089707026255 569) rotate(0 55.5 26)"><text x="0" y="18" font-family="Virgil, Segoe UI Emoji" font-size="20px" fill="#000000" text-anchor="start" style="white-space: pre;" direction="ltr">clear fields</text><text x="0" y="44" font-family="Virgil, Segoe UI Emoji" font-size="20px" fill="#000000" text-anchor="start" style="white-space: pre;" direction="ltr">button</text></g><g transform="translate(170.14089707026255 327) rotate(0 45.5 26)"><text x="0" y="18" font-family="Virgil, Segoe UI Emoji" font-size="20px" fill="#000000" text-anchor="start" style="white-space: pre;" direction="ltr">item1</text><text x="0" y="44" font-family="Virgil, Segoe UI Emoji" font-size="20px" fill="#000000" text-anchor="start" style="white-space: pre;" direction="ltr">textbox2</text></g><g transform="translate(185.14089707026255 436) rotate(0 45.5 26)"><text x="0" y="18" font-family="Virgil, Segoe UI Emoji" font-size="20px" fill="#000000" text-anchor="start" style="white-space: pre;" direction="ltr">item2</text><text x="0" y="44" font-family="Virgil, Segoe UI Emoji" font-size="20px" fill="#000000" text-anchor="start" style="white-space: pre;" direction="ltr">textbox3</text></g><g transform="translate(930.1408970702626 647) rotate(0 42.5 26)"><text x="0" y="18" font-family="Virgil, Segoe UI Emoji" font-size="20px" fill="#000000" text-anchor="start" style="white-space: pre;" direction="ltr">add item</text><text x="0" y="44" font-family="Virgil, Segoe UI Emoji" font-size="20px" fill="#000000" text-anchor="start" style="white-space: pre;" direction="ltr">button</text></g><g stroke-linecap="round"><g transform="translate(630.1408970702626 27) rotate(0 -60.111417293921136 40.51401348222048)"><path d="M0.55 0.33 C-19.76 13.55, -100.78 66.78, -120.78 80.02 M-0.62 -0.54 C-20.63 12.82, -98.59 67.98, -118.47 81.57" stroke="#000000" stroke-width="1" fill="none"/></g><g transform="translate(630.1408970702626 27) rotate(0 -60.111417293921136 40.51401348222048)"><path d="M-100.65 55.74 C-107.75 67.6, -114.88 77.73, -117.86 79.72 M-100.24 56.56 C-106.9 66.13, -112.83 74.05, -118.57 82.02" stroke="#000000" stroke-width="1" fill="none"/></g><g transform="translate(630.1408970702626 27) rotate(0 -60.111417293921136 40.51401348222048)"><path d="M-88.92 72.58 C-100.69 77.93, -112.39 81.5, -117.86 79.72 M-88.51 73.4 C-99.01 77.24, -108.93 79.42, -118.57 82.02" stroke="#000000" stroke-width="1" fill="none"/></g></g><g transform="translate(564.1408970702626 93) rotate(0 22.5 13)"><text x="0" y="18" font-family="Virgil, Segoe UI Emoji" font-size="20px" fill="#000000" text-anchor="start" style="white-space: pre;" direction="ltr">label</text></g><g transform="translate(12.140897070262554 90) rotate(0 7 13)"><text x="0" y="18" font-family="Virgil, Segoe UI Emoji" font-size="20px" fill="#000000" text-anchor="start" style="white-space: pre;" direction="ltr">2</text></g><g transform="translate(865.1408970702626 59) rotate(0 7 13)"><text x="0" y="18" font-family="Virgil, Segoe UI Emoji" font-size="20px" fill="#000000" text-anchor="start" style="white-space: pre;" direction="ltr">3</text></g><g transform="translate(649.1408970702626 10) rotate(0 2.5 13)"><text x="0" y="18" font-family="Virgil, Segoe UI Emoji" font-size="20px" fill="#000000" text-anchor="start" style="white-space: pre;" direction="ltr">1</text></g><g transform="translate(930.1408970702626 787) rotate(0 69.5 26)"><text x="0" y="18" font-family="Virgil, Segoe UI Emoji" font-size="20px" fill="#000000" text-anchor="start" style="white-space: pre;" direction="ltr">sub item</text><text x="0" y="44" font-family="Virgil, Segoe UI Emoji" font-size="20px" fill="#000000" text-anchor="start" style="white-space: pre;" direction="ltr">remove button</text></g><g stroke-linecap="round" transform="translate(630.1408970702626 567) rotate(0 150 20)"><path d="M-0.08 -1.14 C96.23 -0.04, 191.89 -1.22, 300.52 1.35 M0.18 0.12 C63.18 1.16, 127.69 1.07, 299.33 0.53 M301.83 -1.23 C299.55 15.29, 298.04 26.83, 301.72 41.64 M299.81 0.51 C301.18 14.82, 299.56 32.04, 299.42 41 M299.82 38.8 C224.65 40.9, 149.5 38.91, -0.02 41.31 M300.5 39.47 C207.47 37.31, 116.83 37.29, -0.14 39.72 M-0.53 41.8 C-0.41 27.3, -0.93 18.55, -0.26 -1.26 M-0.11 40.03 C-1.05 24.49, 0.52 10.99, -0.31 0.84" stroke="#000000" stroke-width="1" fill="none"/></g><g stroke-linecap="round" transform="translate(790.1408970702626 627) rotate(0 40 40)"><path d="M44.25 0.78 C51.37 1.01, 59.95 4.19, 65.89 9.42 C71.83 14.65, 77.95 24.36, 79.91 32.16 C81.88 39.96, 80.75 49.21, 77.7 56.19 C74.65 63.17, 68.34 69.93, 61.61 74.04 C54.89 78.16, 45.4 81.56, 37.34 80.87 C29.28 80.19, 19.2 75.21, 13.27 69.92 C7.35 64.64, 3.39 56.68, 1.81 49.15 C0.23 41.63, 1.21 31.94, 3.81 24.78 C6.41 17.61, 11.05 10.42, 17.41 6.17 C23.77 1.91, 37.29 0.05, 41.94 -0.76 C46.6 -1.58, 44.58 0.99, 45.32 1.27 C46.06 1.55, 46.42 0.24, 46.36 0.9 M42.25 -1.07 C49.23 -1.31, 56.71 2.49, 62.89 7.22 C69.06 11.95, 76.85 19.8, 79.3 27.31 C81.75 34.83, 80.29 44.59, 77.59 52.32 C74.89 60.04, 69.25 69.13, 63.08 73.67 C56.91 78.22, 48.08 79.82, 40.56 79.6 C33.03 79.38, 24.48 76.91, 17.93 72.34 C11.37 67.77, 3.7 59.6, 1.22 52.2 C-1.25 44.81, 0.79 35.15, 3.07 27.97 C5.36 20.78, 8.81 13.97, 14.92 9.1 C21.04 4.23, 35.4 0.27, 39.76 -1.24 C44.11 -2.74, 41.02 -0.06, 41.05 0.07 C41.08 0.2, 39.73 -1.18, 39.92 -0.45" stroke="#000000" stroke-width="1" fill="none"/></g><g stroke-linecap="round"><g transform="translate(831.1517718896455 646.7316737633013) rotate(0 -0.1757988241407702 20.621706009302272)"><path d="M-1.01 0.86 C-0.95 7.64, 0.05 32.97, 0.38 39.63 M0.66 0.27 C0.59 7.31, -0.38 34.54, -0.36 40.98" stroke="#000000" stroke-width="1" fill="none"/></g></g><g stroke-linecap="round"><g transform="translate(811.7146182000452 668.8128374969169) rotate(0 19.55519075321024 -0.547242666853208)"><path d="M-0.08 -0.49 C6.58 -0.3, 33.94 0.63, 40.68 0.72 M-1.57 -1.79 C4.92 -1.91, 33.2 -1.55, 40.1 -1.03" stroke="#000000" stroke-width="1" fill="none"/></g></g><g stroke-linecap="round"><g transform="translate(811.0246985393576 748.5326403519174) rotate(0 19.869370947647894 -0.5709489234740772)"><path d="M0.38 0.02 C7.03 -0.04, 34.03 0.23, 40.62 0.39 M-0.88 -1.02 C5.61 -1.51, 33.33 -1.56, 40 -1.53" stroke="#000000" stroke-width="1" fill="none"/></g></g><g stroke-linecap="round" transform="translate(790.1408970702626 727) rotate(0 40 20)"><path d="M54.65 1.22 C62.32 2.51, 70.41 7.08, 74.65 10.81 C78.88 14.54, 81.52 19.49, 80.05 23.62 C78.57 27.75, 72.35 32.9, 65.78 35.61 C59.21 38.31, 49.27 39.78, 40.61 39.83 C31.94 39.88, 20.53 38.73, 13.77 35.89 C7 33.06, 1.37 26.99, 0.03 22.82 C-1.32 18.65, 1.31 14.54, 5.68 10.87 C10.05 7.19, 17.47 2.11, 26.24 0.77 C35 -0.57, 52.09 2.09, 58.27 2.82 C64.45 3.55, 63.67 4.98, 63.31 5.15 M40.89 -1.14 C49.15 -1.17, 62.28 3.05, 68.8 6.41 C75.31 9.77, 79.35 14.75, 79.98 19.01 C80.61 23.26, 77.17 28.59, 72.56 31.92 C67.95 35.25, 60.23 37.98, 52.32 38.99 C44.42 40.01, 32.95 39.42, 25.13 38 C17.31 36.59, 9.44 34.32, 5.4 30.48 C1.36 26.65, -0.81 19.4, 0.87 15.02 C2.55 10.63, 8.56 6.67, 15.5 4.18 C22.45 1.69, 38.32 0.8, 42.55 0.06 C46.77 -0.68, 41.17 -0.79, 40.86 -0.26" stroke="#000000" stroke-width="1" fill="none"/></g><g stroke-linecap="round" transform="translate(810.1408970702626 867) rotate(0 30 20)"><path d="M1.72 -0.13 C13.61 -1.36, 29.88 0.04, 61.91 -1.68 M0.65 -0.87 C15.59 0.63, 33.42 -0.15, 60.93 -0.62 M61.14 -0.51 C61.64 16.57, 59.95 28.69, 59.33 40.24 M59.54 -0.86 C60.82 12.02, 60.58 25.57, 59.88 40.45 M60.69 41.41 C37.29 40.76, 17.07 38.54, 1.04 41.89 M59.65 40.07 C40.64 39.62, 19.07 39.91, -0.46 40.43 M-1.62 40.3 C0.96 29.45, -2.21 13.61, 1.54 -1.4 M-0.78 40.7 C0.59 26.61, 0.52 14.83, -0.5 -0.08" stroke="#000000" stroke-width="1" fill="none"/></g><g transform="translate(820.1408970702626 859) rotate(0 19 8)" stroke="none" fill="#000000"><path d="M -0.34152695152482593 -2.602687907026534 Q -0.34152695152482593 -2.602687907026534 0.4559967543623406 -2.4545255801159307 1.2535204602495071 -2.306363253205328 0.4559967543623406 -2.4545255801159307 -0.34152695152482593 -2.602687907026534 0.4559967543623406 -2.4545255801159307 1.2535204602495071 -2.306363253205328 1.8116430610257233 -1.7177247401343974 2.3697656618019396 -1.129086227063467 2.4753032938601796 -0.32481143273810464 2.5808409259184195 0.4794633615872577 2.1934818009046166 1.192168802029594 1.8061226758908133 1.90487424247193 1.07382481370782 2.2537810747492317 0.34152695152482626 2.602687907026534 -0.4559967543623401 2.454525580115931 -1.2535204602495065 2.3063632532053284 -1.811643061025723 1.7177247401343978 -2.3697656618019396 1.1290862270634672 -2.47530329386018 0.32481143273810514 -2.58084092591842 -0.4794633615872569 -2.1934818009046175 -1.1921688020295924 -1.806122675890815 -1.9048742424719278 -1.0738248137078206 -2.253781074749231 Z"/></g><g transform="translate(821.1408970702626 874) rotate(0 34.5 4.5)" stroke="none" fill="#000000"><path d="M 3.021509403527388 1.3420917982695462 Q 3.021509403527388 1.3420917982695462 3.861985083535737 2.6567452630220565 4.702460763544086 3.9713987277745666 3.861985083535737 2.6567452630220565 3.021509403527388 1.3420917982695462 3.861985083535737 2.6567452630220565 4.702460763544086 3.9713987277745666 5.920388524152747 5.816326562699452 7.138316284761407 7.661254397624336 8.335481519909527 9.706441336100136 9.532646755057646 11.751628274575936 10.409069241682896 13.306891104712806 11.285491728308145 14.862153934849676 12.304712219649128 16.585965449528683 13.32393271099011 18.30977696420769 14.675963796375665 19.48550160972996 16.02799488176122 20.661226255252224 16.594393863494254 22.406311876865296 17.160792845227288 24.15139749847837 16.701830924001705 23.897638322519565 16.242869002776125 23.64387914656076 17.867857769504056 22.37001595425413 19.492846536231987 21.0961527619475 20.77215186186251 19.412351138754193 22.051457187493032 17.728549515560886 23.68915606731202 15.746851265652289 25.326854947131004 13.765153015743694 27.212826920571118 11.803799772801796 29.098798894011235 9.842446529859897 30.479574812475533 8.175364097920369 31.860350730939828 6.508281665980839 33.092303326345 5.158416932117371 34.324255921750165 3.8085521982539037 35.59884062809304 2.581822439988812 36.87342533443593 1.35509268172372 38.17255710950194 0.05617318609983779 39.47168888456794 -1.2427463095240445 41.03949283836855 -2.473284509125766 42.607296792169166 -3.703822708727488 43.89797367307566 -4.8390507756383565 45.18865055398216 -5.974278842549225 46.695299938408525 -7.229855008496119 48.2019493228349 -8.485431174443013 49.75830887706802 -10.092310375920459 51.31466843130113 -11.699189577397902 52.97663667126814 -12.699261368447985 54.63860491123515 -13.699333159498067 55.94198993454161 -14.94320611978733 57.24537495784807 -16.187079080076593 58.50553421912194 -17.10996920922564 59.765693480395804 -18.032859338374685 61.49721865923644 -18.5213419689447 63.228743838077065 -19.009824599514715 65.51987418429177 -19.82859793464848 67.81100453050647 -20.647371269782248 69.12444985032081 -20.57381421842579 70.43789517013518 -20.500257167069336 71.15041005421114 -19.394421832167836 71.86292493828711 -18.288586497266337 71.38709110027023 -17.062156145984776 70.91125726225333 -15.835725794703215 69.63936615312126 -15.499805782710357 68.36747504398919 -15.1638857707175 67.34811120906659 -15.995418464000434 66.32874737414397 -16.826951157283368 66.40230442550043 -18.140396477097724 66.47586147685689 -19.45384179691208 67.58169681175838 -20.166356680988045 68.68753214665988 -20.878871565064014 69.91396249794144 -20.403037727047128 71.140392849223 -19.92720388903024 71.47631286121586 -18.655312779898164 71.81223287320873 -17.38342167076609 70.98070017992579 -16.364057835843482 70.14916748664285 -15.344694000920878 68.7762782128497 -14.881499321217042 67.40338893905655 -14.418304641513208 65.45305230026788 -14.06170403455689 63.50271566147922 -13.70510342760057 61.87391171419577 -12.531208538977916 60.24510776691232 -11.357313650355263 58.65097687149351 -10.05191752770402 57.056845976074705 -8.74652140505278 55.34529702304155 -7.5361624911598035 53.633748070008394 -6.325803577266827 52.44121818466948 -5.057993672284982 51.24868829933057 -3.7901837673031373 49.38186492179653 -2.096785883638595 47.51504154426249 -0.40338799997405195 45.93509705520943 0.7445346974613759 44.35515256615638 1.8924573948968038 42.97997725934808 3.174331777431607 41.60480195253979 4.456206159966411 39.70061801713859 6.326421361414919 37.79643408173739 8.196636562863427 36.34886605058399 9.970937476077811 34.9012980194306 11.745238389292195 33.11520589762119 13.675833289260463 31.329113775811773 15.60642818922873 29.593103430833615 17.432185553439894 27.85709308585546 19.257942917651054 26.30375845193206 21.22561650034764 24.75042381800866 23.193290083044232 23.60278952841798 24.65991938834769 22.455155238827302 26.12654869365115 21.25874223322308 27.122681893418925 20.062329227618857 28.1188150931867 17.95046464553132 28.747262951133955 15.838600063443783 29.375710809081212 14.161438597857273 27.327707836763402 12.484277132270762 25.27970486444559 10.918642239363287 23.65328546207534 9.353007346455813 22.026866059705085 8.17851321414047 20.187178001609393 7.004019081825128 18.3474899435137 5.8904522461474125 16.444017288860362 4.776885410469697 14.540544634207023 3.795541887072895 12.777028388555017 2.8141983636760934 11.013512142903009 1.425985987566004 8.91918903178297 0.03777361145591451 6.824865920662933 -0.6061588904475517 5.747243785897949 -1.2500913923510177 4.669621651132965 -1.8001004986747597 3.1560990046335675 -2.3501096049985017 1.6425763581341704 -2.5179595546307234 0.8964093190332412 -2.685809504262945 0.1502422799323121 -2.4734926166402156 -0.6534441897007632 -2.2611757290174856 -1.4571306593338387 -1.6170127044205773 -1.9825299360589228 -0.9728496798236689 -2.507929212784007 -0.14288889935266585 -2.55435663055673 0.6870718811183372 -2.6007840483294524 1.3858136086529012 -2.1505059115705243 2.084555336187465 -1.7002277748115964 2.5530323698574264 -0.1790679882710251 Z"/></g><g transform="translate(858.1408970702626 355) rotate(0 34 4.5)" stroke="none" fill="#000000"><path d="M 2.8033159192908954 0.8307540345128444 Q 2.8033159192908954 0.8307540345128444 3.3444584269629285 1.8706403584084577 3.885600934634962 2.910526682304071 3.3444584269629285 1.8706403584084577 2.8033159192908954 0.8307540345128444 3.3444584269629285 1.8706403584084577 3.885600934634962 2.910526682304071 4.303960207286676 4.456447533078297 4.722319479938389 6.002368383852522 5.02718095214861 7.655268281168661 5.332042424358831 9.3081681784848 6.309336254197703 10.551016296244043 7.286630084036574 11.793864414003284 7.685939294765173 12.043967763878214 8.085248505493771 12.294071113753143 7.675691911886601 12.096357046862945 7.2661353182794315 11.898642979972745 8.67375556962284 13.008718625043054 10.081375820966247 14.118794270113362 11.155780390963983 15.261719775613651 12.230184960961719 16.40464528111394 12.600107660733716 16.78243733992141 12.970030360505714 17.160229398728884 12.636739785844686 16.68009139127777 12.303449211183656 16.19995338382666 14.44294422216208 15.945331125982262 16.5824392331405 15.690708868137865 18.800432461894495 14.960677166026127 21.018425690648492 14.230645463914389 22.810566762087397 13.456416105329872 24.602707833526306 12.682186746745355 26.586803320693644 11.786022932376357 28.57089880786098 10.889859118007358 30.58545584565708 9.951188850016779 32.600012883453175 9.0125185820262 34.61550975329949 8.051580027436888 36.631006623145815 7.090641472847578 38.5221150733997 6.119455827340612 40.413223523653585 5.148270181833647 42.05443491750701 4.165787287207915 43.69564631136043 3.183304392582183 45.68557894211673 2.049657813342107 47.67551157287303 0.9160112341020304 49.589256190063715 -0.47414967271098835 51.5030008072544 -1.8643105795240071 53.36738634715566 -3.0665442691874167 55.23177188705691 -4.268777958850826 57.52029201464251 -5.5160529582800715 59.808812142228106 -6.763327957709317 61.14688807123168 -7.947287800799354 62.48496400023525 -9.131247643889392 63.85586970296055 -10.109036025326347 65.22677540568584 -11.0868244067633 66.16970325260452 -11.882699860995405 67.1126310995232 -12.678575315227508 68.37329986611289 -12.453368415794966 69.63396863270258 -12.228161516362425 70.19277493283832 -11.0758857657127 70.75158123297406 -9.923610015062975 70.1478286706002 -8.794235528883222 69.54407610822634 -7.66486104270347 68.2755161036963 -7.4894774587695 67.00695609916626 -7.314093874835528 66.11942693691846 -8.237292592754105 65.23189777467066 -9.160491310672683 65.45710467410319 -10.421160077262371 65.68231157353574 -11.68182884385206 66.83458732418546 -12.240635143987806 67.98686307483518 -12.79944144412355 69.11623756101494 -12.195688881749687 70.24561204719468 -11.591936319375824 70.42099563112866 -10.323376314845781 70.59637921506264 -9.054816310315736 69.67318049714406 -8.167287148067938 68.74998177922548 -7.279757985820138 67.1131901131566 -5.852790827458676 65.47639844708775 -4.425823669097214 63.684494011452905 -3.1177441519915363 61.892589575818064 -1.8096646348858583 60.04084159843243 -0.9241502711564518 58.189093621046794 -0.03863590742704537 56.45997047172577 0.9535264058255091 54.73084732240475 1.9456887190780634 52.39845291203905 3.4158638589204653 50.06605850167334 4.886038998762867 48.05506911052017 6.017963715701552 46.044079719367005 7.149888432640237 44.294880159311575 8.167194775848134 42.545680599256144 9.184501119056034 40.62514523387461 10.212472424883586 38.70460986849308 11.240443730711139 36.72353147579774 12.276132981459902 34.7424530831024 13.311822232208664 32.770709070731854 14.35966318557038 30.798965058361304 15.407504138932097 28.837856344862065 16.45738520997228 26.876747631362825 17.507266281012463 24.888071900135433 18.517216464064667 22.89939616890804 19.52716664711687 21.27018270171836 20.16050979880673 19.640969234528676 20.793852950496586 17.975568944538058 21.257745761997775 16.31016865454744 21.72163857349896 14.108023328356364 21.74907635034701 11.905878002165288 21.776514127195057 10.42005675737116 20.551242232122128 8.934235512577034 19.325970337049196 8.880924693325301 19.55559253894148 8.827613874073567 19.785214740833762 8.179149482673646 19.08519991731393 7.530685091273724 18.3851850937941 6.282472245428195 16.85904811529148 5.034259399582667 15.332911136788857 5.11539953089904 15.669235029089364 5.1965396622154145 16.005558921389873 4.50704542231959 15.0893591147193 3.8175511824237645 14.17315930804873 4.4547437815817 14.721702759894171 5.091936380739636 15.270246211739611 4.268643770489087 15.161381278520285 3.445351160238537 15.052516345300958 2.243995872452312 13.838822760553699 1.0426405846660867 12.625129175806439 0.3882527724246732 10.137302464861376 -0.26613503981674025 7.649475753916312 -0.7303021500264664 5.816836657225345 -1.1944692602361926 3.9841975605343776 -1.7240527054658163 2.814335202215446 -2.25363615069544 1.644472843896514 -2.3910560928443036 1.0256661242941743 -2.528476034993168 0.4068594046918348 -2.40660103750339 -0.375092673367564 -2.2847260400136125 -1.1570447514269628 -1.7265071963722112 -1.7180209452161483 -1.1682883527308097 -2.278997139005334 -0.38694628804813636 -2.404723609376385 0.39439577663453695 -2.5304500797474363 1.1004149504897192 -2.1729035883041683 1.8064341243449014 -1.8153570968609 2.3048750218178986 -0.49230153117402786 Z"/></g><g transform="translate(971.1408970702626 334) rotate(0 0.00004999999998744897 0.00004999999998744897)" stroke="none" fill="#000000"><path d="M 1.8561553006146874 -1.8561553006146874 Q 1.8561553006146874 -1.8561553006146874 2.224418597338462 -1.1333978856726468 2.5926818940622365 -0.41064047073060617 2.224418597338462 -1.1333978856726468 1.8561553006146874 -1.8561553006146874 2.224418597338462 -1.1333978856726468 2.5926818940622365 -0.41064047073060617 2.465787010028351 0.390542295542852 2.338892125994466 1.1917250618163102 1.765308593905388 1.765308593905388 1.1917250618163102 2.338892125994466 0.39054229554285225 2.465787010028351 -0.4106404707306057 2.5926818940622365 -1.1333978856726463 2.2244185973384623 -1.8561553006146871 1.8561553006146876 -2.224418597338462 1.1333978856726472 -2.5926818940622365 0.4106404707306066 -2.465787010028351 -0.3905422955428518 -2.338892125994466 -1.1917250618163102 -1.7653085939053885 -1.7653085939053879 -1.191725061816311 -2.3388921259944655 -0.390542295542854 -2.465787010028351 0.41064047073060306 -2.5926818940622374 1.1333978856726452 -2.2244185973384623 Z"/></g><g transform="translate(930.1408970702626 727) rotate(0 58 26)"><text x="0" y="18" font-family="Virgil, Segoe UI Emoji" font-size="20px" fill="#000000" text-anchor="start" style="white-space: pre;" direction="ltr">sub item</text><text x="0" y="44" font-family="Virgil, Segoe UI Emoji" font-size="20px" fill="#000000" text-anchor="start" style="white-space: pre;" direction="ltr">add button1</text></g><g stroke-linecap="round"><g transform="translate(831.3266347505637 728.2754572456143) rotate(0 0.3192341029681529 19.685766593609003)"><path d="M-0.27 -0.15 C-0.43 6.5, -1.31 32.73, -1.17 39.42 M1.79 -1.28 C1.99 5.57, 1.21 33.55, 0.92 40.65" stroke="#000000" stroke-width="1" fill="none"/></g></g><g stroke-linecap="round" transform="translate(810.1408970702626 787) rotate(0 30 20)"><path d="M-1.37 -1.59 C21.34 -0.24, 45.47 0.93, 60.71 0.23 M0.15 -0.67 C16.14 0.95, 32.64 0.45, 59.88 -0.37 M59.72 -0.23 C58.79 9.82, 58.17 23.76, 61.93 41.02 M59.02 0.88 C60.18 14.85, 60.3 28.63, 59.4 39.12 M61.02 41.5 C44.63 39.9, 25.83 40.71, -0.3 39.39 M59.83 40.63 C42.46 39.61, 23.59 40.44, -0.5 40.47 M-0.76 39.73 C0.39 28.6, 1.08 20.91, -1.11 0.67 M-0.56 40.33 C-0.6 25.79, 0.11 8.87, -0.88 0.94" stroke="#000000" stroke-width="1" fill="none"/></g><g stroke-linecap="round"><g transform="translate(830.1408970702626 807) rotate(0 9.626201774617698 0.5160653645731372)"><path d="M0.42 0.2 C3.96 0.23, 16.8 0.16, 20.07 0.16 M-0.82 -0.75 C2.67 -0.49, 15.81 1.38, 19.16 1.78" stroke="#000000" stroke-width="1" fill="none"/></g></g><g transform="translate(933.1408970702626 865) rotate(0 46.5 13)"><text x="0" y="18" font-family="Virgil, Segoe UI Emoji" font-size="20px" fill="#000000" text-anchor="start" style="white-space: pre;" direction="ltr">check box</text></g><g transform="translate(966.1408970702626 581) rotate(0 38.5 13)"><text x="0" y="18" font-family="Virgil, Segoe UI Emoji" font-size="20px" fill="#000000" text-anchor="start" style="white-space: pre;" direction="ltr">textbox</text></g><g stroke-linecap="round"><g transform="translate(70.14089707026255 707) rotate(0 99.58019159393385 -40.44629926430065)"><path d="M0.42 0.16 C33.67 -13.06, 166.87 -66.03, 199.98 -79.3 M-0.82 -0.81 C32.23 -14.37, 165.3 -67.61, 199.02 -81.05" stroke="#000000" stroke-width="1" fill="none"/></g><g transform="translate(70.14089707026255 707) rotate(0 99.58019159393385 -40.44629926430065)"><path d="M176.91 -61.09 C185.4 -69.44, 192.77 -74.06, 199.71 -82.03 M176.68 -60.35 C182.01 -66.96, 189.54 -72.12, 198.1 -81.84" stroke="#000000" stroke-width="1" fill="none"/></g><g transform="translate(70.14089707026255 707) rotate(0 99.58019159393385 -40.44629926430065)"><path d="M169.3 -80.15 C180.37 -82.06, 190.32 -80.23, 199.71 -82.03 M169.07 -79.4 C176.57 -80.65, 186.25 -80.42, 198.1 -81.84" stroke="#000000" stroke-width="1" fill="none"/></g></g><g stroke-linecap="round"><g transform="translate(970.1408970702626 187) rotate(0 -140.24449913723396 69.94024431146683)"><path d="M-0.17 -0.82 C-46.67 22.63, -232.99 117.11, -279.59 140.7 M-1.71 1.37 C-48.28 24.46, -233.88 116.04, -280.32 138.94" stroke="#000000" stroke-width="1" fill="none"/></g><g transform="translate(970.1408970702626 187) rotate(0 -140.24449913723396 69.94024431146683)"><path d="M-260.94 117.95 C-263.62 123.11, -268.8 130.12, -281.11 139.52 M-260.13 117.59 C-267.96 125.2, -276.1 133.71, -280.08 137.95" stroke="#000000" stroke-width="1" fill="none"/></g><g transform="translate(970.1408970702626 187) rotate(0 -140.24449913723396 69.94024431146683)"><path d="M-251.86 136.36 C-256.83 136.88, -264.29 139.26, -281.11 139.52 M-251.05 136 C-262.57 136.35, -274.27 137.63, -280.08 137.95" stroke="#000000" stroke-width="1" fill="none"/></g></g><g stroke-linecap="round"><g transform="translate(1010.1408970702626 247) rotate(0 -99.66384663471956 49.84909545401112)"><path d="M-0.43 0.46 C-33.76 16.97, -166.67 82.46, -199.95 99.02 M1.55 -0.35 C-31.93 16.29, -167.12 83.15, -200.87 100.05" stroke="#000000" stroke-width="1" fill="none"/></g><g transform="translate(1010.1408970702626 247) rotate(0 -99.66384663471956 49.84909545401112)"><path d="M-179.44 78.39 C-188.06 84.57, -192.94 91.41, -200.27 98.28 M-179.8 78.66 C-186.01 84.06, -190.8 89.45, -200.67 100.07" stroke="#000000" stroke-width="1" fill="none"/></g><g transform="translate(1010.1408970702626 247) rotate(0 -99.66384663471956 49.84909545401112)"><path d="M-170.31 96.77 C-181.66 97.39, -189.28 98.7, -200.27 98.28 M-170.67 97.04 C-179.37 97.51, -186.62 97.94, -200.67 100.07" stroke="#000000" stroke-width="1" fill="none"/></g></g><g stroke-linecap="round"><g transform="translate(1150.1408970702626 267) rotate(0 -110.20574044806881 40.47601464582607)"><path d="M0.03 1.12 C-36.45 14.46, -182.93 67, -219.67 80.3 M-1.42 0.65 C-37.96 13.6, -183.79 65.27, -220.44 78.33" stroke="#000000" stroke-width="1" fill="none"/></g><g transform="translate(1150.1408970702626 267) rotate(0 -110.20574044806881 40.47601464582607)"><path d="M-195.45 59.78 C-202.2 63.08, -206.63 67.86, -219.05 78.65 M-196.94 58.64 C-202.57 65.36, -210.08 69.5, -220.18 78.67" stroke="#000000" stroke-width="1" fill="none"/></g><g transform="translate(1150.1408970702626 267) rotate(0 -110.20574044806881 40.47601464582607)"><path d="M-188.58 79.12 C-196.98 77.89, -203.02 78.14, -219.05 78.65 M-190.08 77.98 C-197.74 79.35, -207.14 78.17, -220.18 78.67" stroke="#000000" stroke-width="1" fill="none"/></g></g><g transform="translate(982.1408970702626 181) rotate(0 6.5 13)"><text x="0" y="18" font-family="Virgil, Segoe UI Emoji" font-size="20px" fill="#000000" text-anchor="start" style="white-space: pre;" direction="ltr">4</text></g><g transform="translate(1027.1408970702626 229) rotate(0 6 13)"><text x="0" y="18" font-family="Virgil, Segoe UI Emoji" font-size="20px" fill="#000000" text-anchor="start" style="white-space: pre;" direction="ltr">5</text></g><g transform="translate(1161.1408970702626 260) rotate(0 6.5 13)"><text x="0" y="18" font-family="Virgil, Segoe UI Emoji" font-size="20px" fill="#000000" text-anchor="start" style="white-space: pre;" direction="ltr">6</text></g><g transform="translate(57.140897070262554 700) rotate(0 5.5 13)"><text x="0" y="18" font-family="Virgil, Segoe UI Emoji" font-size="20px" fill="#000000" text-anchor="start" style="white-space: pre;" direction="ltr">7</text></g><g transform="translate(718.1408970702626 527) rotate(0 63 13)"><text x="0" y="18" font-family="Virgil, Segoe UI Emoji" font-size="20px" fill="#000000" text-anchor="start" style="white-space: pre;" direction="ltr">functionality.</text></g></svg>