<?xml version="1.0" encoding="UTF-8" standalone="no"?>
<!DOCTYPE svg PUBLIC "-//W3C//DTD SVG 1.1//EN"
 "http://www.w3.org/Graphics/SVG/1.1/DTD/svg11.dtd">
<!-- Generated by graphviz version 2.44.0 (20200408.0750)
 -->
<!-- Title: dependency&#45;cruiser output Pages: 1 -->
<svg width="126pt" height="173pt"
 viewBox="0.00 0.00 126.00 173.00" xmlns="http://www.w3.org/2000/svg" xmlns:xlink="http://www.w3.org/1999/xlink">
<g id="graph0" class="graph" transform="scale(1 1) rotate(0) translate(4 169)">
<title>dependency&#45;cruiser output</title>
<polygon fill="white" stroke="transparent" points="-4,4 -4,-169 122,-169 122,4 -4,4"/>
<g id="clust1" class="cluster">
<title>cluster_client</title>
<path fill="#ffffff" stroke="black" stroke-width="2" d="M20,-8C20,-8 98,-8 98,-8 104,-8 110,-14 110,-20 110,-20 110,-145 110,-145 110,-151 104,-157 98,-157 98,-157 20,-157 20,-157 14,-157 8,-151 8,-145 8,-145 8,-20 8,-20 8,-14 14,-8 20,-8"/>
<text text-anchor="middle" x="59" y="-144.9" font-family="Helvetica,sans-Serif" font-weight="bold" font-size="9.00">client</text>
</g>
<g id="clust2" class="cluster">
<title>cluster_client/src</title>
<path fill="#ffffff" stroke="black" stroke-width="2" d="M28,-42C28,-42 90,-42 90,-42 96,-42 102,-48 102,-54 102,-54 102,-118 102,-118 102,-124 96,-130 90,-130 90,-130 28,-130 28,-130 22,-130 16,-124 16,-118 16,-118 16,-54 16,-54 16,-48 22,-42 28,-42"/>
<text text-anchor="middle" x="59" y="-117.9" font-family="Helvetica,sans-Serif" font-weight="bold" font-size="9.00">src</text>
</g>
<g id="clust3" class="cluster">
<title>cluster_client/src/init</title>
<path fill="#ffffff" stroke="black" stroke-width="2" d="M36,-50C36,-50 82,-50 82,-50 88,-50 94,-56 94,-62 94,-62 94,-91 94,-91 94,-97 88,-103 82,-103 82,-103 36,-103 36,-103 30,-103 24,-97 24,-91 24,-91 24,-62 24,-62 24,-56 30,-50 36,-50"/>
<text text-anchor="middle" x="59" y="-90.9" font-family="Helvetica,sans-Serif" font-weight="bold" font-size="9.00">init</text>
</g>
<!-- client/data.js -->
<g id="node1" class="node">
<title>client/data.js</title>
<g id="a_node1"><a xlink:href="../client/data.js" xlink:title="data.js">
<path fill="#ccffcc" stroke="black" d="M79.8,-34.3C79.8,-34.3 38.2,-34.3 38.2,-34.3 35.1,-34.3 32,-31.2 32,-28.1 32,-28.1 32,-21.9 32,-21.9 32,-18.8 35.1,-15.7 38.2,-15.7 38.2,-15.7 79.8,-15.7 79.8,-15.7 82.9,-15.7 86,-18.8 86,-21.9 86,-21.9 86,-28.1 86,-28.1 86,-31.2 82.9,-34.3 79.8,-34.3"/>
<text text-anchor="middle" x="59" y="-22.3" font-family="Helvetica,sans-Serif" font-size="9.00">data.js</text>
</a>
</g>
</g>
<!-- client/src/init/index.js -->
<g id="node2" class="node">
<title>client/src/init/index.js</title>
<g id="a_node2"><a xlink:href="../client/src/init/index.js" xlink:title="index.js">
<path fill="#ccffcc" stroke="black" d="M79.8,-76.3C79.8,-76.3 38.2,-76.3 38.2,-76.3 35.1,-76.3 32,-73.2 32,-70.1 32,-70.1 32,-63.9 32,-63.9 32,-60.8 35.1,-57.7 38.2,-57.7 38.2,-57.7 79.8,-57.7 79.8,-57.7 82.9,-57.7 86,-60.8 86,-63.9 86,-63.9 86,-70.1 86,-70.1 86,-73.2 82.9,-76.3 79.8,-76.3"/>
<text text-anchor="middle" x="59" y="-64.3" font-family="Helvetica,sans-Serif" font-size="9.00">index.js</text>
</a>
</g>
</g>
</g>
</svg>
